<svg width="24" height="24" viewBox="0 0 24 24" fill="none" xmlns="http://www.w3.org/2000/svg">
<path d="M22 13C22 14.11 21.11 15 20 15H4C3.46957 15 2.96086 14.7893 2.58579 14.4142C2.21071 14.0391 2 13.5304 2 13C2 12.4696 2.21071 11.9609 2.58579 11.5858C2.96086 11.2107 3.46957 11 4 11H13L15.5 13L18 11H20C20.5304 11 21.0391 11.2107 21.4142 11.5858C21.7893 11.9609 22 12.4696 22 13ZM12 3C3 3 3 9 3 9H21C21 9 21 3 12 3ZM3 18C3 19.66 4.34 21 6 21H18C19.66 21 21 19.66 21 18V17H3V18Z" fill="white"/>
</svg>
